<svg width="33" height="33" viewBox="0 0 33 33" fill="none" xmlns="http://www.w3.org/2000/svg">
<g clip-path="url(#clip0_1210_1921)">
<path d="M16.2542 3.44894C20.5927 3.44894 21.1065 3.46797 22.8127 3.54409C24.3984 3.61386 25.2547 3.88026 25.8255 4.10225C26.5803 4.39402 27.1258 4.74922 27.6903 5.31373C28.2612 5.88459 28.61 6.42373 28.9018 7.17852C29.1238 7.74938 29.3902 8.612 29.46 10.1914C29.5361 11.9039 29.5551 12.4177 29.5551 16.7498C29.5551 21.0883 29.5361 21.6021 29.46 23.3083C29.3902 24.894 29.1238 25.7503 28.9018 26.3212C28.61 27.076 28.2548 27.6214 27.6903 28.1859C27.1195 28.7568 26.5803 29.1057 25.8255 29.3974C25.2547 29.6194 24.3921 29.8858 22.8127 29.9556C21.1001 30.0317 20.5864 30.0507 16.2542 30.0507C11.9157 30.0507 11.402 30.0317 9.69575 29.9556C8.11004 29.8858 7.25376 29.6194 6.68291 29.3974C5.92811 29.1057 5.38263 28.7505 4.81812 28.1859C4.24726 27.6151 3.89841 27.076 3.60664 26.3212C3.38464 25.7503 3.11824 24.8877 3.04847 23.3083C2.97236 21.5958 2.95333 21.082 2.95333 16.7498C2.95333 12.4114 2.97236 11.8976 3.04847 10.1914C3.11824 8.60566 3.38464 7.74938 3.60664 7.17852C3.89841 6.42373 4.25361 5.87824 4.81812 5.31373C5.38897 4.74288 5.92811 4.39402 6.68291 4.10225C7.25376 3.88026 8.11639 3.61386 9.69575 3.54409C11.402 3.46797 11.9157 3.44894 16.2542 3.44894ZM16.2542 0.524902C11.846 0.524902 11.2941 0.543931 9.56255 0.620045C7.8373 0.696159 6.65119 0.975243 5.62366 1.37484C4.55172 1.79347 3.6447 2.34529 2.74401 3.25232C1.83699 4.153 1.28517 5.06002 0.86654 6.12561C0.466942 7.15949 0.187858 8.33926 0.111744 10.0645C0.03563 11.8024 0.0166016 12.3543 0.0166016 16.7625C0.0166016 21.1708 0.03563 21.7226 0.111744 23.4542C0.187858 25.1794 0.466942 26.3656 0.86654 27.3931C1.28517 28.465 1.83699 29.3721 2.74401 30.2727C3.6447 31.1734 4.55172 31.7316 5.61731 32.1439C6.65119 32.5435 7.83096 32.8225 9.5562 32.8987C11.2878 32.9748 11.8396 32.9938 16.2479 32.9938C20.6561 32.9938 21.208 32.9748 22.9396 32.8987C24.6648 32.8225 25.8509 32.5435 26.8785 32.1439C27.944 31.7316 28.8511 31.1734 29.7517 30.2727C30.6524 29.3721 31.2106 28.465 31.6229 27.3994C32.0225 26.3656 32.3016 25.1858 32.3777 23.4605C32.4538 21.729 32.4728 21.1771 32.4728 16.7689C32.4728 12.3606 32.4538 11.8088 32.3777 10.0772C32.3016 8.35194 32.0225 7.16584 31.6229 6.1383C31.2233 5.06002 30.6715 4.153 29.7644 3.25232C28.8638 2.35163 27.9567 1.79347 26.8911 1.38118C25.8573 0.981585 24.6775 0.702501 22.9522 0.626387C21.2143 0.543931 20.6625 0.524902 16.2542 0.524902Z" fill="black"/>
<path d="M16.2539 8.42163C11.649 8.42163 7.91309 12.1576 7.91309 16.7624C7.91309 21.3673 11.649 25.1033 16.2539 25.1033C20.8588 25.1033 24.5947 21.3673 24.5947 16.7624C24.5947 12.1576 20.8588 8.42163 16.2539 8.42163ZM16.2539 22.1729C13.2664 22.1729 10.8435 19.7499 10.8435 16.7624C10.8435 13.775 13.2664 11.352 16.2539 11.352C19.2414 11.352 21.6643 13.775 21.6643 16.7624C21.6643 19.7499 19.2414 22.1729 16.2539 22.1729Z" fill="black"/>
<path d="M26.872 8.09178C26.872 9.17006 25.9967 10.039 24.9248 10.039C23.8465 10.039 22.9775 9.16372 22.9775 8.09178C22.9775 7.0135 23.8528 6.14453 24.9248 6.14453C25.9967 6.14453 26.872 7.01984 26.872 8.09178Z" fill="black"/>
</g>
<defs>
<clipPath id="clip0_1210_1921">
<rect width="32.4752" height="32.4752" fill="white" transform="translate(0.0166016 0.524902)"/>
</clipPath>
</defs>
</svg>
