<svg width="33" height="33" viewBox="0 0 33 33" fill="none" xmlns="http://www.w3.org/2000/svg">
<g clip-path="url(#clip0_1210_1919)">
<path d="M30.5962 0.524902H2.92249C1.59684 0.524902 0.524902 1.57147 0.524902 2.8654V30.6533C0.524902 31.9472 1.59684 33.0001 2.92249 33.0001H30.5962C31.9219 33.0001 33.0001 31.9472 33.0001 30.6596V2.8654C33.0001 1.57147 31.9219 0.524902 30.5962 0.524902ZM10.1596 28.1986H5.3391V12.6968H10.1596V28.1986ZM7.74938 10.5846C6.20173 10.5846 4.95219 9.33508 4.95219 7.79378C4.95219 6.25247 6.20173 5.00293 7.74938 5.00293C9.29068 5.00293 10.5402 6.25247 10.5402 7.79378C10.5402 9.32874 9.29068 10.5846 7.74938 10.5846ZM28.1986 28.1986H23.3844V20.6634C23.3844 18.8683 23.3527 16.5532 20.879 16.5532C18.3736 16.5532 17.993 18.5131 17.993 20.5365V28.1986H13.1852V12.6968H17.8027V14.8153H17.8662C18.5068 13.5975 20.0798 12.3099 22.4203 12.3099C27.298 12.3099 28.1986 15.5193 28.1986 19.6929V28.1986Z" fill="black"/>
</g>
<defs>
<clipPath id="clip0_1210_1919">
<rect width="32.4752" height="32.4752" fill="white" transform="translate(0.524902 0.524902)"/>
</clipPath>
</defs>
</svg>
