<svg width="33" height="33" viewBox="0 0 33 33" fill="none" xmlns="http://www.w3.org/2000/svg">
<g clip-path="url(#clip0_1210_1925)">
<path d="M10.7242 29.9555C22.976 29.9555 29.6791 19.8025 29.6791 11.0006C29.6791 10.7152 29.6727 10.4234 29.6601 10.138C30.964 9.19496 32.0893 8.02692 32.9831 6.68873C31.7687 7.22904 30.4793 7.58191 29.159 7.7353C30.5491 6.902 31.59 5.59293 32.0887 4.05075C30.7809 4.82581 29.3507 5.37255 27.8593 5.66754C26.8545 4.59985 25.5259 3.89291 24.079 3.65602C22.6321 3.41913 21.1474 3.66549 19.8546 4.35701C18.5617 5.04852 17.5327 6.14667 16.9265 7.48169C16.3204 8.8167 16.1709 10.3142 16.5012 11.7427C13.8531 11.6098 11.2624 10.9219 8.89723 9.72354C6.53201 8.5252 4.44502 6.84318 2.77157 4.78652C1.92103 6.25295 1.66076 7.98821 2.04366 9.63964C2.42656 11.2911 3.4239 12.7347 4.83298 13.6773C3.77513 13.6437 2.74045 13.3589 1.81443 12.8463V12.9288C1.81349 14.4677 2.3455 15.9595 3.32005 17.1505C4.29459 18.3415 5.65152 19.1582 7.16016 19.4619C6.18023 19.73 5.15175 19.7691 4.1543 19.5761C4.58001 20.8995 5.40829 22.0571 6.52354 22.8872C7.63879 23.7172 8.98537 24.1784 10.3753 24.2063C8.01558 26.06 5.10059 27.0654 2.09986 27.0606C1.56771 27.0598 1.03608 27.0272 0.507812 26.9629C3.55623 28.9186 7.10236 29.9574 10.7242 29.9555Z" fill="black"/>
</g>
<defs>
<clipPath id="clip0_1210_1925">
<rect width="32.4752" height="32.4752" fill="white" transform="translate(0.507812 0.524902)"/>
</clipPath>
</defs>
</svg>
