<svg width="33" height="4" viewBox="0 0 33 4" fill="none" xmlns="http://www.w3.org/2000/svg">
<path d="M16.1198 3.82802C11.4556 3.82802 6.79143 3.83229 2.12723 3.82589C0.902403 3.82589 0.216241 3.26641 0.179902 2.29266C0.149976 1.45771 0.686507 0.791458 1.51375 0.671874C1.82797 0.62703 2.15075 0.629167 2.47138 0.629167C11.5882 0.629167 20.7028 0.629167 29.8195 0.629167C30.138 0.629167 30.463 0.629167 30.775 0.676146C31.5382 0.793594 32.0576 1.39578 32.0854 2.15812C32.1153 2.96531 31.6194 3.62088 30.8285 3.76609C30.4907 3.82802 30.1402 3.82589 29.7939 3.82589C25.2366 3.83016 20.6771 3.82802 16.1198 3.82589V3.82802Z" fill="#FD6F00"/>
</svg>
